<svg xmlns="http://www.w3.org/2000/svg" xmlns:xlink="http://www.w3.org/1999/xlink" width="102.22" height="102.22" viewBox="0 0 102.22 102.22">
  <defs>
    <filter id="Trazado_874925" x="0" y="0" width="102.22" height="102.22" filterUnits="userSpaceOnUse">
      <feOffset dy="3" input="SourceAlpha"/>
      <feGaussianBlur stdDeviation="3" result="blur"/>
      <feFlood flood-opacity="0.161"/>
      <feComposite operator="in" in2="blur"/>
      <feComposite in="SourceGraphic"/>
    </filter>
  </defs>
  <g id="Grupo_1110667" data-name="Grupo 1110667" transform="translate(9 6)">
    <g id="Grupo_1109782" data-name="Grupo 1109782" transform="translate(0 0)">
      <g transform="matrix(1, 0, 0, 1, -9, -6)" filter="url(#Trazado_874925)">
        <g id="Trazado_874925-2" data-name="Trazado 874925" transform="translate(9 6)" fill="#efd42f">
          <path d="M 42.10976409912109 82.71994781494141 C 36.62682342529297 82.71994781494141 31.30868148803711 81.64644622802734 26.30307006835938 79.52925872802734 C 21.46747016906738 77.48397064208984 17.12434005737305 74.55565643310547 13.39432907104492 70.82564544677734 C 9.664305686950684 67.09563446044922 6.735987663269043 62.75250244140625 4.690705299377441 57.91690444946289 C 2.573505163192749 52.91130447387695 1.499999403953552 47.59316253662109 1.499999403953552 42.11022186279297 C 1.499999403953552 36.62679672241211 2.573505163192749 31.30866813659668 4.690705299377441 26.30305671691895 C 6.735987663269043 21.46745681762695 9.664305686950684 17.12432670593262 13.39432907104492 13.39431476593018 C 17.12434005737305 9.664303779602051 21.46747016906738 6.73598575592041 26.30307006835938 4.690691471099854 C 31.30868148803711 2.573503255844116 36.62682342529297 1.49999737739563 42.10976409912109 1.49999737739563 C 47.59270477294922 1.49999737739563 52.91084671020508 2.573503255844116 57.91645812988281 4.690691471099854 C 62.75205993652344 6.73598575592041 67.09518432617188 9.664303779602051 70.82520294189453 13.39431476593018 C 74.55522155761719 17.12432670593262 77.48354339599609 21.46745681762695 79.52882385253906 26.30305671691895 C 81.64602661132812 31.30866813659668 82.71952819824219 36.62679672241211 82.71952819824219 42.10973739624023 C 82.71952819824219 47.59316253662109 81.64602661132812 52.91130447387695 79.52882385253906 57.91690444946289 C 77.48354339599609 62.75250244140625 74.55522155761719 67.09563446044922 70.82520294189453 70.82564544677734 C 67.09518432617188 74.55565643310547 62.75205993652344 77.48397064208984 57.91645812988281 79.52925872802734 C 52.91084671020508 81.64644622802734 47.59270477294922 82.71994781494141 42.10976409912109 82.71994781494141 Z" stroke="none"/>
          <path d="M 42.10976409912109 3 C 36.82865905761719 3 31.70711135864258 4.033638000488281 26.88739013671875 6.072196960449219 C 22.2305908203125 8.0418701171875 18.04772186279297 10.86224365234375 14.45497894287109 14.45497131347656 C 10.86224365234375 18.04772186279297 8.0418701171875 22.23058700561523 6.07220458984375 26.88738632202148 C 4.033645629882812 31.70709228515625 3.000007629394531 36.82862854003906 3.000007629394531 42.11022567749023 C 3.000007629394531 47.39133453369141 4.033645629882812 52.51286697387695 6.07220458984375 57.33258819580078 C 8.0418701171875 61.98938751220703 10.86224365234375 66.1722412109375 14.45497894287109 69.76498413085938 C 18.04772186279297 73.35771942138672 22.2305908203125 76.17807769775391 26.88739013671875 78.14775085449219 C 31.70711135864258 80.18630981445312 36.82865905761719 81.21994781494141 42.10976409912109 81.21994781494141 C 47.390869140625 81.21994781494141 52.51241683959961 80.18630981445312 57.33212280273438 78.14775085449219 C 61.98893737792969 76.17807769775391 66.17180633544922 73.35771942138672 69.76454162597656 69.76497650146484 C 73.35728454589844 66.1722412109375 76.17765808105469 61.98938751220703 78.14730834960938 57.33258819580078 C 80.18588256835938 52.51286697387695 81.21952056884766 47.39133453369141 81.21952056884766 42.10973358154297 C 81.21952056884766 36.82862854003906 80.18588256835938 31.70709228515625 78.14730834960938 26.88738632202148 C 76.17765808105469 22.23058700561523 73.35728454589844 18.04772186279297 69.76454162597656 14.45497131347656 C 66.17180633544922 10.86224365234375 61.98892211914062 8.0418701171875 57.33212280273438 6.072196960449219 C 52.51241683959961 4.033638000488281 47.390869140625 3 42.10976409912109 3 M 42.10976409912109 0 C 65.3663330078125 0 84.21952056884766 18.85317230224609 84.21952056884766 42.10973358154297 L 84.21952056884766 42.11022567749023 C 84.21952056884766 65.36679840087891 65.3663330078125 84.21994781494141 42.10976409912109 84.21994781494141 C 18.85317993164062 84.21994781494141 7.62939453125e-06 65.36679840087891 7.62939453125e-06 42.11022567749023 L 7.62939453125e-06 42.10973358154297 C 7.62939453125e-06 18.85317230224609 18.85317993164062 0 42.10976409912109 0 Z" stroke="none" fill="#fff"/>
        </g>
      </g>
    </g>
    <g id="Page-1" transform="translate(17.366 21.491)">
      <g id="_040---Truck" data-name="040---Truck">
        <path id="Shape" d="M44.94,37.65V39.3a1.655,1.655,0,0,1-1.65,1.65H30.919v-.825a.825.825,0,0,0-.825-.825H21.846a.825.825,0,0,0-.825.825v.825H8.65A1.655,1.655,0,0,1,7,39.3V37.65A1.655,1.655,0,0,1,8.65,36H43.291A1.655,1.655,0,0,1,44.94,37.65Z" transform="translate(-1.226 -6.308)" fill="#9e9e9e"/>
        <path id="Shape-2" data-name="Shape" d="M21,40.825v.825h2.474v-.825A.825.825,0,0,1,24.3,40H21.825A.825.825,0,0,0,21,40.825Z" transform="translate(-3.679 -7.009)" fill="#707070"/>
        <path id="Shape-3" data-name="Shape" d="M50.474,36H48a1.655,1.655,0,0,1,1.65,1.65V39.3A1.655,1.655,0,0,1,48,40.949h2.474a1.655,1.655,0,0,0,1.65-1.65V37.65A1.655,1.655,0,0,0,50.474,36Z" transform="translate(-8.41 -6.308)" fill="#707070"/>
        <path id="Shape-4" data-name="Shape" d="M13.722,39.834v3.3a2.474,2.474,0,0,1-2.474,2.474H5.474A2.474,2.474,0,0,1,3,43.134V30.762a2.449,2.449,0,0,1,.272-1.122,12.949,12.949,0,0,0,3.027.3s0,4.124,1.65,4.949a1.655,1.655,0,0,0-1.65,1.65v1.65a1.655,1.655,0,0,0,1.65,1.65Z" transform="translate(-0.526 -5.193)" fill="#607d8b"/>
        <path id="Shape-5" data-name="Shape" d="M12.474,42v3.3A2.474,2.474,0,0,1,10,47.774h2.474A2.474,2.474,0,0,0,14.949,45.3V42Z" transform="translate(-1.752 -7.359)" fill="#37474f"/>
        <path id="Shape-6" data-name="Shape" d="M48.838,26.073s0,.874-1.922,1.353a12.949,12.949,0,0,1-3.027.3s0,4.124-1.65,4.949H7.6c-1.65-.825-1.65-4.949-1.65-4.949a12.949,12.949,0,0,1-3.027-.3C1,26.947,1,26.073,1,26.073c0-2.681,3.266-3.728,4.5-4.025a.825.825,0,0,0,.586-.577A8.943,8.943,0,0,1,9.248,17H40.59a8.943,8.943,0,0,1,3.167,4.47.825.825,0,0,0,.586.577C45.571,22.345,48.838,23.392,48.838,26.073Z" transform="translate(-0.175 -2.979)" fill="#f44335"/>
        <path id="Shape-7" data-name="Shape" d="M52.227,22.048a.825.825,0,0,1-.586-.577A8.943,8.943,0,0,0,48.474,17H46a8.943,8.943,0,0,1,3.167,4.47.825.825,0,0,0,.586.577c1.229.3,4.5,1.344,4.5,4.025,0,0,0,.874-1.922,1.353a12.949,12.949,0,0,1-3.027.3s0,4.124-1.65,4.949h2.474c1.65-.825,1.65-4.949,1.65-4.949a12.949,12.949,0,0,0,3.027-.3c1.922-.478,1.922-1.353,1.922-1.353,0-2.681-3.266-3.728-4.5-4.025Z" transform="translate(-8.06 -2.979)" fill="#c81e1e"/>
        <path id="Shape-8" data-name="Shape" d="M54.722,30.762V43.134a2.474,2.474,0,0,1-2.474,2.474H46.474A2.474,2.474,0,0,1,44,43.134v-3.3h5.774a1.655,1.655,0,0,0,1.65-1.65v-1.65a1.655,1.655,0,0,0-1.65-1.65c1.65-.825,1.65-4.949,1.65-4.949a12.949,12.949,0,0,0,3.027-.3A2.449,2.449,0,0,1,54.722,30.762Z" transform="translate(-7.709 -5.193)" fill="#607d8b"/>
        <path id="Shape-9" data-name="Shape" d="M55.677,29.64a11.911,11.911,0,0,1-2.369.281,2.4,2.4,0,0,1,.167.84V43.134A2.474,2.474,0,0,1,51,45.608h2.474a2.474,2.474,0,0,0,2.474-2.474V30.762A2.449,2.449,0,0,0,55.677,29.64Z" transform="translate(-8.936 -5.193)" fill="#37474f"/>
        <path id="Shape-10" data-name="Shape" d="M42.342,5.949V14.2h-3.3V5.949a1.655,1.655,0,0,0-1.65-1.65H15.949a1.655,1.655,0,0,0-1.65,1.65V14.2H11V5.949A4.949,4.949,0,0,1,15.949,1H37.393A4.949,4.949,0,0,1,42.342,5.949Z" transform="translate(-1.927 -0.175)" fill="#f44335"/>
        <path id="Shape-11" data-name="Shape" d="M42.474,1H40a4.949,4.949,0,0,1,4.949,4.949V14.2h2.474V5.949A4.949,4.949,0,0,0,42.474,1Z" transform="translate(-7.009 -0.175)" fill="#c81e1e"/>
        <path id="Shape-12" data-name="Shape" d="M39.744,6.65V14.9H15V6.65A1.655,1.655,0,0,1,16.65,5H38.094A1.655,1.655,0,0,1,39.744,6.65Z" transform="translate(-2.628 -0.876)" fill="#00bcd4"/>
        <path id="Shape-13" data-name="Shape" d="M42.474,5H40a1.655,1.655,0,0,1,1.65,1.65V14.9h2.474V6.65A1.655,1.655,0,0,0,42.474,5Z" transform="translate(-7.009 -0.876)" fill="#00838f"/>
        <rect id="Rectangle-path" width="5.513" height="4.595" rx="2" transform="translate(0.852 8.674)" fill="#f44335"/>
        <rect id="Rectangle-path-2" data-name="Rectangle-path" width="5.513" height="4.595" rx="2" transform="translate(48.635 13.268) rotate(180)" fill="#f44335"/>
        <rect id="Rectangle-path-3" data-name="Rectangle-path" width="7.351" height="5.513" rx="2" transform="translate(9.122 18.782)" fill="#ffdc00"/>
        <rect id="Rectangle-path-4" data-name="Rectangle-path" width="7.351" height="5.513" rx="2" transform="translate(33.014 18.782)" fill="#ffdc00"/>
        <rect id="Rectangle-path-5" data-name="Rectangle-path" width="9.189" height="4.595" rx="1" transform="translate(20.149 32.565)" fill="#ffdc00"/>
        <path id="Shape-14" data-name="Shape" d="M34.474,40H32a.825.825,0,0,1,.825.825V43.3a.825.825,0,0,1-.825.825h2.474A.825.825,0,0,0,35.3,43.3V40.825A.825.825,0,0,0,34.474,40Z" transform="translate(-5.607 -7.009)" fill="#fec108"/>
        <path id="Rectangle-path-6" data-name="Rectangle-path" d="M0,0H11.9V1.65H0Z" transform="matrix(0.555, -0.832, 0.832, 0.555, 14.988, 13.567)" fill="#f5f5f5"/>
        <path id="Rectangle-path-7" data-name="Rectangle-path" d="M0,0H11.9V1.65H0Z" transform="matrix(0.555, -0.832, 0.832, 0.555, 19.938, 13.567)" fill="#f5f5f5"/>
        <g id="Grupo_1110236" data-name="Grupo 1110236">
          <path id="Shape-15" data-name="Shape" d="M47.013,7.423H44.538A2.474,2.474,0,0,0,42.064,9.9v.825h-.825V5.774A5.78,5.78,0,0,0,35.466,0H14.021A5.78,5.78,0,0,0,8.248,5.774v4.949H7.423V9.9A2.474,2.474,0,0,0,4.949,7.423H2.474A2.474,2.474,0,0,0,0,9.9v1.65a2.474,2.474,0,0,0,2.474,2.474H4.949a2.474,2.474,0,0,0,2.323-1.65h.977v1.237a9.865,9.865,0,0,0-3.126,4.653C3.582,18.64,0,19.863,0,23.094c0,.373.177,1.287,1.719,1.9a3.255,3.255,0,0,0-.069.577V37.94a3.265,3.265,0,0,0,.459,1.65H.825a.825.825,0,0,0,0,1.65H48.662a.825.825,0,1,0,0-1.65H47.379a3.265,3.265,0,0,0,.459-1.65V25.568a3.255,3.255,0,0,0-.069-.577c1.542-.61,1.719-1.524,1.719-1.9,0-3.232-3.582-4.454-5.119-4.846a9.864,9.864,0,0,0-3.128-4.635V12.372h.977a2.474,2.474,0,0,0,2.323,1.65h2.474a2.474,2.474,0,0,0,2.474-2.474V9.9A2.474,2.474,0,0,0,47.013,7.423ZM5.774,11.547a.825.825,0,0,1-.825.825H2.474a.825.825,0,0,1-.825-.825V9.9a.825.825,0,0,1,.825-.825H4.949a.825.825,0,0,1,.825.825ZM9.9,5.774A4.129,4.129,0,0,1,14.021,1.65H35.466A4.129,4.129,0,0,1,39.59,5.774V13.2H37.94V5.774A2.474,2.474,0,0,0,35.466,3.3H14.021a2.474,2.474,0,0,0-2.474,2.474V13.2H9.9ZM36.291,13.2H13.2V5.774a.825.825,0,0,1,.825-.825H35.466a.825.825,0,0,1,.825.825ZM3.3,37.94V25.568A1.485,1.485,0,0,1,3.32,25.4a14.187,14.187,0,0,0,1.656.156,8.922,8.922,0,0,0,.99,3.8,2.467,2.467,0,0,0-1.017,1.99v1.65a2.474,2.474,0,0,0,2.474,2.474h4.949V37.94a1.65,1.65,0,0,1-1.65,1.65V37.94a.825.825,0,0,0-1.65,0v1.65H6.6V37.94a.825.825,0,0,0-1.65,0v1.65A1.65,1.65,0,0,1,3.3,37.94Zm38.765-7.423a.825.825,0,0,1,.825.825v1.65a.825.825,0,0,1-.825.825H30.517a1.65,1.65,0,0,0-1.65-1.65H20.62a1.65,1.65,0,0,0-1.65,1.65H7.423a.825.825,0,0,1-.825-.825v-1.65a.825.825,0,0,1,.825-.825ZM14.021,35.466H18.97v.825a1.65,1.65,0,0,0,1.65,1.65h8.248a1.65,1.65,0,0,0,1.65-1.65v-.825h4.949V37.94a3.265,3.265,0,0,0,.459,1.65H13.563a3.265,3.265,0,0,0,.459-1.65Zm6.6-1.65h8.248v2.474H20.62Zm25.568-8.248V37.94a1.65,1.65,0,0,1-1.65,1.65V37.94a.825.825,0,0,0-1.65,0v1.65H40.415V37.94a.825.825,0,0,0-1.65,0v1.65a1.65,1.65,0,0,1-1.65-1.65V35.466h4.949a2.474,2.474,0,0,0,2.474-2.474v-1.65a2.467,2.467,0,0,0-1.018-1.99,8.922,8.922,0,0,0,.99-3.8,14.186,14.186,0,0,0,1.656-.156A1.486,1.486,0,0,1,46.188,25.568Zm-3.4-6.83a1.65,1.65,0,0,0,1.183,1.131c.893.218,3.78,1.08,3.862,3.132-.1.149-.784.918-4.124.918a.825.825,0,0,0-.825.825c0,1.391-.353,3.573-1.09,4.124H7.688c-.737-.551-1.09-2.733-1.09-4.124a.825.825,0,0,0-.825-.825c-3.338,0-4.022-.769-4.124-.918.082-2.053,2.969-2.914,3.861-3.134a1.65,1.65,0,0,0,1.183-1.13A8.225,8.225,0,0,1,9.35,14.846H40.14A8.141,8.141,0,0,1,42.792,18.738Zm5.045-7.191a.825.825,0,0,1-.825.825H44.538a.825.825,0,0,1-.825-.825V9.9a.825.825,0,0,1,.825-.825h2.474a.825.825,0,0,1,.825.825Z"/>
          <path id="Shape-16" data-name="Shape" d="M16.6,22H12.474A2.474,2.474,0,0,0,10,24.474v1.65A2.474,2.474,0,0,0,12.474,28.6H16.6a2.474,2.474,0,0,0,2.474-2.474v-1.65A2.474,2.474,0,0,0,16.6,22Zm.825,4.124a.825.825,0,0,1-.825.825H12.474a.825.825,0,0,1-.825-.825v-1.65a.825.825,0,0,1,.825-.825H16.6a.825.825,0,0,1,.825.825Z" transform="translate(-1.752 -3.855)"/>
          <path id="Shape-17" data-name="Shape" d="M45.6,22H41.474A2.474,2.474,0,0,0,39,24.474v1.65A2.474,2.474,0,0,0,41.474,28.6H45.6a2.474,2.474,0,0,0,2.474-2.474v-1.65A2.474,2.474,0,0,0,45.6,22Zm.825,4.124a.825.825,0,0,1-.825.825H41.474a.825.825,0,0,1-.825-.825v-1.65a.825.825,0,0,1,.825-.825H45.6a.825.825,0,0,1,.825.825Z" transform="translate(-6.833 -3.855)"/>
          <path id="Shape-18" data-name="Shape" d="M13.474,31h-1.65a.825.825,0,1,0,0,1.65h1.65a.825.825,0,1,0,0-1.65Z" transform="translate(-1.927 -5.432)"/>
          <path id="Shape-19" data-name="Shape" d="M47.474,31h-1.65a.825.825,0,1,0,0,1.65h1.65a.825.825,0,1,0,0-1.65Z" transform="translate(-7.885 -5.432)"/>
          <path id="Shape-20" data-name="Shape" d="M23.825,22a.825.825,0,0,0-.825.825v6.6a.825.825,0,0,0,1.65,0v-6.6A.825.825,0,0,0,23.825,22Z" transform="translate(-4.03 -3.855)"/>
          <path id="Shape-21" data-name="Shape" d="M27.825,22a.825.825,0,0,0-.825.825v6.6a.825.825,0,1,0,1.65,0v-6.6A.825.825,0,0,0,27.825,22Z" transform="translate(-4.731 -3.855)"/>
          <path id="Shape-22" data-name="Shape" d="M31.825,22a.825.825,0,0,0-.825.825v6.6a.825.825,0,0,0,1.65,0v-6.6A.825.825,0,0,0,31.825,22Z" transform="translate(-5.432 -3.855)"/>
          <path id="Shape-23" data-name="Shape" d="M35.825,22a.825.825,0,0,0-.825.825v6.6a.825.825,0,1,0,1.65,0v-6.6A.825.825,0,0,0,35.825,22Z" transform="translate(-6.132 -3.855)"/>
        </g>
      </g>
    </g>
  </g>
</svg>
