<svg xmlns="http://www.w3.org/2000/svg" xmlns:xlink="http://www.w3.org/1999/xlink" width="105.001" height="105.001" viewBox="0 0 105.001 105.001">
  <defs>
    <filter id="Trazado_874925" x="0" y="0" width="105.001" height="105.001" filterUnits="userSpaceOnUse">
      <feOffset dy="3" input="SourceAlpha"/>
      <feGaussianBlur stdDeviation="3" result="blur"/>
      <feFlood flood-opacity="0.161"/>
      <feComposite operator="in" in2="blur"/>
      <feComposite in="SourceGraphic"/>
    </filter>
  </defs>
  <g id="Grupo_1110742" data-name="Grupo 1110742" transform="translate(-1011 -3070.825)">
    <g id="Grupo_1109782" data-name="Grupo 1109782" transform="translate(1020 3076.825)">
      <g transform="matrix(1, 0, 0, 1, -9, -6)" filter="url(#Trazado_874925)">
        <g id="Trazado_874925-2" data-name="Trazado 874925" transform="translate(9 6)" fill="#efd42f">
          <path d="M 43.50046157836914 85.50141906738281 C 37.82977294921875 85.50141906738281 32.32950973510742 84.39114379882812 27.1524486541748 82.20143127441406 C 22.15123748779297 80.08609771728516 17.65938568115234 77.05751037597656 13.80164909362793 73.19977569580078 C 9.943911552429199 69.34204864501953 6.915324211120605 64.85018157958984 4.799986362457275 59.84897232055664 C 2.610274076461792 54.67192077636719 1.499999046325684 49.17164611816406 1.499999046325684 43.50096130371094 C 1.499999046325684 37.82977294921875 2.610274076461792 32.32950973510742 4.799986362457275 27.15244674682617 C 6.915324211120605 22.1512336730957 9.943911552429199 17.65938377380371 13.80164909362793 13.8016471862793 C 17.65938568115234 9.943909645080566 22.15123748779297 6.915321826934814 27.1524486541748 4.799984455108643 C 32.32950973510742 2.61027193069458 37.82977294921875 1.499997019767761 43.50046157836914 1.499997019767761 C 49.17115020751953 1.499997019767761 54.67142486572266 2.61027193069458 59.84847259521484 4.799984455108643 C 64.84968566894531 6.915321826934814 69.341552734375 9.943909645080566 73.19927215576172 13.8016471862793 C 77.05701446533203 17.65938377380371 80.08560180664062 22.1512336730957 82.20093536376953 27.15244674682617 C 84.39064788818359 32.32950973510742 85.50092315673828 37.82977294921875 85.50092315673828 43.50045776367188 C 85.50092315673828 49.17164611816406 84.39064788818359 54.67192077636719 82.20093536376953 59.84897232055664 C 80.08560180664062 64.85018157958984 77.05701446533203 69.34204864501953 73.19927215576172 73.19977569580078 C 69.341552734375 77.05751037597656 64.84968566894531 80.08609771728516 59.84847259521484 82.20143127441406 C 54.67142486572266 84.39114379882812 49.17115020751953 85.50141906738281 43.50046157836914 85.50141906738281 Z" stroke="none"/>
          <path d="M 43.50046157836914 2.999992370605469 C 38.03162002563477 2.999992370605469 32.72794723510742 4.070411682128906 27.73677444458008 6.181495666503906 C 22.91436004638672 8.221199035644531 18.58277893066406 11.14183807373047 14.86231994628906 14.86231231689453 C 11.141845703125 18.582763671875 8.221206665039062 22.91436767578125 6.181503295898438 27.73676681518555 C 4.070419311523438 32.72793960571289 3.000007629394531 38.03160858154297 3.000007629394531 43.5009651184082 C 3.000007629394531 48.96981048583984 4.070419311523438 54.27347946166992 6.181503295898438 59.26465225219727 C 8.221206665039062 64.08706665039062 11.141845703125 68.41865539550781 14.86231994628906 72.13910675048828 C 18.58277893066406 75.85958099365234 22.91436004638672 78.78022766113281 27.73677444458008 80.81992340087891 C 32.72794723510742 82.93100738525391 38.03162002563477 84.00142669677734 43.50046157836914 84.00142669677734 C 48.96930313110352 84.00142669677734 54.27297592163086 82.93100738525391 59.26414489746094 80.81992340087891 C 64.08656311035156 78.78022766113281 68.41815185546875 75.85958099365234 72.13860321044922 72.13910675048828 C 75.85907745361328 68.41865539550781 78.77971649169922 64.08706665039062 80.81941986083984 59.26465225219727 C 82.93050384521484 54.27347946166992 84.00091552734375 48.96981048583984 84.00091552734375 43.50046539306641 C 84.00091552734375 38.03160858154297 82.93050384521484 32.72793960571289 80.81941986083984 27.73676681518555 C 78.77971649169922 22.91436767578125 75.85907745361328 18.582763671875 72.13860321044922 14.86231231689453 C 68.41815185546875 11.14183807373047 64.08656311035156 8.221199035644531 59.26414489746094 6.181495666503906 C 54.27297592163086 4.070411682128906 48.96930313110352 2.999992370605469 43.50046157836914 2.999992370605469 M 43.50046157836914 -7.62939453125e-06 C 67.52510070800781 -7.62939453125e-06 87.00091552734375 19.47580718994141 87.00091552734375 43.50046539306641 L 87.00091552734375 43.5009651184082 C 87.00091552734375 67.52561187744141 67.52510070800781 87.00142669677734 43.50046157836914 87.00142669677734 C 19.47582244873047 87.00142669677734 7.62939453125e-06 67.52561187744141 7.62939453125e-06 43.5009651184082 L 7.62939453125e-06 43.50046539306641 C 7.62939453125e-06 19.47580718994141 19.47582244873047 -7.62939453125e-06 43.50046157836914 -7.62939453125e-06 Z" stroke="none" fill="#fff"/>
        </g>
      </g>
    </g>
    <g id="Page-1" transform="translate(1037.939 3099.026)">
      <g id="_040---Truck" data-name="040---Truck">
        <path id="Shape" d="M46.193,37.7v1.7a1.709,1.709,0,0,1-1.7,1.7H31.709V40.26a.852.852,0,0,0-.852-.852h-8.52a.852.852,0,0,0-.852.852v.852H8.7a1.709,1.709,0,0,1-1.7-1.7V37.7A1.709,1.709,0,0,1,8.7,36H44.489A1.709,1.709,0,0,1,46.193,37.7Z" transform="translate(-1.036 -5.327)" fill="#9e9e9e"/>
        <path id="Shape-2" data-name="Shape" d="M21,40.852V41.7h2.556v-.852A.852.852,0,0,1,24.408,40H21.852A.852.852,0,0,0,21,40.852Z" transform="translate(-3.107 -5.919)" fill="#707070"/>
        <path id="Shape-3" data-name="Shape" d="M50.556,36H48a1.709,1.709,0,0,1,1.7,1.7v1.7a1.709,1.709,0,0,1-1.7,1.7h2.556a1.709,1.709,0,0,0,1.7-1.7V37.7A1.709,1.709,0,0,0,50.556,36Z" transform="translate(-7.103 -5.327)" fill="#707070"/>
        <path id="Shape-4" data-name="Shape" d="M14.076,40.171v3.408a2.556,2.556,0,0,1-2.556,2.556H5.556A2.556,2.556,0,0,1,3,43.579V30.8a2.53,2.53,0,0,1,.281-1.159,13.377,13.377,0,0,0,3.127.307s0,4.26,1.7,5.112a1.709,1.709,0,0,0-1.7,1.7v1.7a1.709,1.709,0,0,0,1.7,1.7Z" transform="translate(-0.444 -4.386)" fill="#607d8b"/>
        <path id="Shape-5" data-name="Shape" d="M12.556,42v3.408A2.556,2.556,0,0,1,10,47.964h2.556a2.556,2.556,0,0,0,2.556-2.556V42Z" transform="translate(-1.48 -6.215)" fill="#37474f"/>
        <path id="Shape-6" data-name="Shape" d="M50.417,26.372s0,.9-1.985,1.4a13.377,13.377,0,0,1-3.127.307s0,4.26-1.7,5.112H7.816c-1.7-.852-1.7-5.112-1.7-5.112a13.377,13.377,0,0,1-3.127-.307C1,27.275,1,26.372,1,26.372c0-2.769,3.374-3.851,4.644-4.158a.852.852,0,0,0,.6-.6A9.239,9.239,0,0,1,9.52,17H41.9a9.239,9.239,0,0,1,3.272,4.618.852.852,0,0,0,.6.6C47.043,22.521,50.417,23.6,50.417,26.372Z" transform="translate(-0.148 -2.516)" fill="#f44335"/>
        <path id="Shape-7" data-name="Shape" d="M52.433,22.214a.852.852,0,0,1-.6-.6A9.239,9.239,0,0,0,48.556,17H46a9.239,9.239,0,0,1,3.272,4.618.852.852,0,0,0,.6.6c1.27.307,4.644,1.389,4.644,4.158,0,0,0,.9-1.985,1.4a13.377,13.377,0,0,1-3.127.307s0,4.26-1.7,5.112H50.26c1.7-.852,1.7-5.112,1.7-5.112a13.377,13.377,0,0,0,3.127-.307c1.985-.494,1.985-1.4,1.985-1.4,0-2.769-3.374-3.851-4.644-4.158Z" transform="translate(-6.807 -2.516)" fill="#c81e1e"/>
        <path id="Shape-8" data-name="Shape" d="M55.076,30.8v12.78a2.556,2.556,0,0,1-2.556,2.556H46.556A2.556,2.556,0,0,1,44,43.579V40.171h5.964a1.709,1.709,0,0,0,1.7-1.7v-1.7a1.709,1.709,0,0,0-1.7-1.7c1.7-.852,1.7-5.112,1.7-5.112A13.377,13.377,0,0,0,54.8,29.64,2.53,2.53,0,0,1,55.076,30.8Z" transform="translate(-6.511 -4.386)" fill="#607d8b"/>
        <path id="Shape-9" data-name="Shape" d="M55.831,29.64a12.3,12.3,0,0,1-2.447.291,2.481,2.481,0,0,1,.172.868v12.78A2.556,2.556,0,0,1,51,46.135h2.556a2.556,2.556,0,0,0,2.556-2.556V30.8a2.53,2.53,0,0,0-.281-1.159Z" transform="translate(-7.547 -4.386)" fill="#37474f"/>
        <path id="Shape-10" data-name="Shape" d="M43.377,6.112v8.52H39.969V6.112a1.709,1.709,0,0,0-1.7-1.7H16.112a1.709,1.709,0,0,0-1.7,1.7v8.52H11V6.112A5.112,5.112,0,0,1,16.112,1H38.265A5.112,5.112,0,0,1,43.377,6.112Z" transform="translate(-1.628 -0.148)" fill="#f44335"/>
        <path id="Shape-11" data-name="Shape" d="M42.556,1H40a5.112,5.112,0,0,1,5.112,5.112v8.52h2.556V6.112A5.112,5.112,0,0,0,42.556,1Z" transform="translate(-5.919 -0.148)" fill="#c81e1e"/>
        <path id="Shape-12" data-name="Shape" d="M40.561,6.7v8.52H15V6.7A1.709,1.709,0,0,1,16.7,5H38.857A1.709,1.709,0,0,1,40.561,6.7Z" transform="translate(-2.22 -0.74)" fill="#00bcd4"/>
        <path id="Shape-13" data-name="Shape" d="M42.556,5H40a1.709,1.709,0,0,1,1.7,1.7v8.52H44.26V6.7A1.709,1.709,0,0,0,42.556,5Z" transform="translate(-5.919 -0.74)" fill="#00838f"/>
        <rect id="Rectangle-path" width="5.695" height="4.746" rx="2" transform="translate(0.88 8.96)" fill="#f44335"/>
        <rect id="Rectangle-path-2" data-name="Rectangle-path" width="5.695" height="4.746" rx="2" transform="translate(50.241 13.707) rotate(180)" fill="#f44335"/>
        <rect id="Rectangle-path-3" data-name="Rectangle-path" width="7.594" height="5.695" rx="2" transform="translate(9.424 19.402)" fill="#ffdc00"/>
        <rect id="Rectangle-path-4" data-name="Rectangle-path" width="7.594" height="5.695" rx="2" transform="translate(34.104 19.402)" fill="#ffdc00"/>
        <rect id="Rectangle-path-5" data-name="Rectangle-path" width="9.492" height="4.746" rx="1" transform="translate(20.815 33.641)" fill="#ffdc00"/>
        <path id="Shape-14" data-name="Shape" d="M34.556,40H32a.852.852,0,0,1,.852.852v2.556A.852.852,0,0,1,32,44.26h2.556a.852.852,0,0,0,.852-.852V40.852A.852.852,0,0,0,34.556,40Z" transform="translate(-4.735 -5.919)" fill="#fec108"/>
        <path id="Rectangle-path-6" data-name="Rectangle-path" d="M0,0H12.288V1.7H0Z" transform="matrix(0.555, -0.832, 0.832, 0.555, 15.483, 14.015)" fill="#f5f5f5"/>
        <path id="Rectangle-path-7" data-name="Rectangle-path" d="M0,0H12.288V1.7H0Z" transform="matrix(0.555, -0.832, 0.832, 0.555, 20.597, 14.015)" fill="#f5f5f5"/>
        <g id="Grupo_1110236" data-name="Grupo 1110236">
          <path id="Shape-15" data-name="Shape" d="M48.565,7.668H46.009a2.556,2.556,0,0,0-2.556,2.556v.852H42.6V5.964A5.971,5.971,0,0,0,36.637,0H14.484A5.971,5.971,0,0,0,8.52,5.964v5.112H7.668v-.852A2.556,2.556,0,0,0,5.112,7.668H2.556A2.556,2.556,0,0,0,0,10.224v1.7a2.556,2.556,0,0,0,2.556,2.556H5.112a2.556,2.556,0,0,0,2.4-1.7H8.52v1.278a10.191,10.191,0,0,0-3.229,4.807C3.7,19.256,0,20.518,0,23.857c0,.385.182,1.329,1.776,1.96a3.363,3.363,0,0,0-.072.6v12.78a3.373,3.373,0,0,0,.474,1.7H.852a.852.852,0,0,0,0,1.7H50.27a.852.852,0,1,0,0-1.7H48.944a3.373,3.373,0,0,0,.474-1.7V26.413a3.363,3.363,0,0,0-.072-.6c1.593-.63,1.776-1.575,1.776-1.96,0-3.338-3.7-4.6-5.289-5.006A10.189,10.189,0,0,0,42.6,14.063V12.78H43.61a2.556,2.556,0,0,0,2.4,1.7h2.556a2.556,2.556,0,0,0,2.556-2.556v-1.7A2.556,2.556,0,0,0,48.565,7.668Zm-42.6,4.26a.852.852,0,0,1-.852.852H2.556a.852.852,0,0,1-.852-.852v-1.7a.852.852,0,0,1,.852-.852H5.112a.852.852,0,0,1,.852.852Zm4.26-5.964a4.265,4.265,0,0,1,4.26-4.26H36.637a4.265,4.265,0,0,1,4.26,4.26v7.668h-1.7V5.964a2.556,2.556,0,0,0-2.556-2.556H14.484a2.556,2.556,0,0,0-2.556,2.556v7.668h-1.7Zm27.265,7.668H13.632V5.964a.852.852,0,0,1,.852-.852H36.637a.852.852,0,0,1,.852.852ZM3.408,39.193V26.413a1.534,1.534,0,0,1,.021-.176A14.655,14.655,0,0,0,5.14,26.4a9.216,9.216,0,0,0,1.022,3.924,2.548,2.548,0,0,0-1.051,2.056v1.7a2.556,2.556,0,0,0,2.556,2.556H12.78v2.556a1.7,1.7,0,0,1-1.7,1.7v-1.7a.852.852,0,1,0-1.7,0v1.7H6.816v-1.7a.852.852,0,1,0-1.7,0v1.7A1.7,1.7,0,0,1,3.408,39.193Zm40.045-7.668a.852.852,0,0,1,.852.852v1.7a.852.852,0,0,1-.852.852H31.525a1.7,1.7,0,0,0-1.7-1.7H21.3a1.7,1.7,0,0,0-1.7,1.7H7.668a.852.852,0,0,1-.852-.852v-1.7a.852.852,0,0,1,.852-.852ZM14.484,36.637H19.6v.852a1.7,1.7,0,0,0,1.7,1.7h8.52a1.7,1.7,0,0,0,1.7-1.7v-.852h5.112v2.556a3.373,3.373,0,0,0,.474,1.7h-23.1a3.373,3.373,0,0,0,.474-1.7Zm6.816-1.7h8.52v2.556H21.3Zm26.413-8.52v12.78a1.7,1.7,0,0,1-1.7,1.7v-1.7a.852.852,0,1,0-1.7,0v1.7H41.749v-1.7a.852.852,0,1,0-1.7,0v1.7a1.7,1.7,0,0,1-1.7-1.7V36.637h5.112a2.556,2.556,0,0,0,2.556-2.556v-1.7a2.548,2.548,0,0,0-1.051-2.056A9.216,9.216,0,0,0,45.98,26.4a14.654,14.654,0,0,0,1.711-.161A1.534,1.534,0,0,1,47.713,26.413Zm-3.508-7.056a1.7,1.7,0,0,0,1.222,1.168c.923.225,3.9,1.116,3.99,3.235-.1.154-.81.948-4.26.948a.852.852,0,0,0-.852.852c0,1.437-.365,3.691-1.126,4.26H7.942c-.761-.569-1.126-2.823-1.126-4.26a.852.852,0,0,0-.852-.852c-3.448,0-4.154-.794-4.26-.948.085-2.121,3.067-3.01,3.988-3.238a1.7,1.7,0,0,0,1.222-1.167,8.5,8.5,0,0,1,2.744-4.019H41.466A8.41,8.41,0,0,1,44.206,19.357Zm5.212-7.429a.852.852,0,0,1-.852.852H46.009a.852.852,0,0,1-.852-.852v-1.7a.852.852,0,0,1,.852-.852h2.556a.852.852,0,0,1,.852.852Z"/>
          <path id="Shape-16" data-name="Shape" d="M16.816,22h-4.26A2.556,2.556,0,0,0,10,24.556v1.7a2.556,2.556,0,0,0,2.556,2.556h4.26a2.556,2.556,0,0,0,2.556-2.556v-1.7A2.556,2.556,0,0,0,16.816,22Zm.852,4.26a.852.852,0,0,1-.852.852h-4.26a.852.852,0,0,1-.852-.852v-1.7a.852.852,0,0,1,.852-.852h4.26a.852.852,0,0,1,.852.852Z" transform="translate(-1.48 -3.255)"/>
          <path id="Shape-17" data-name="Shape" d="M45.816,22h-4.26A2.556,2.556,0,0,0,39,24.556v1.7a2.556,2.556,0,0,0,2.556,2.556h4.26a2.556,2.556,0,0,0,2.556-2.556v-1.7A2.556,2.556,0,0,0,45.816,22Zm.852,4.26a.852.852,0,0,1-.852.852h-4.26a.852.852,0,0,1-.852-.852v-1.7a.852.852,0,0,1,.852-.852h4.26a.852.852,0,0,1,.852.852Z" transform="translate(-5.771 -3.255)"/>
          <path id="Shape-18" data-name="Shape" d="M13.556,31h-1.7a.852.852,0,1,0,0,1.7h1.7a.852.852,0,1,0,0-1.7Z" transform="translate(-1.628 -4.587)"/>
          <path id="Shape-19" data-name="Shape" d="M47.556,31h-1.7a.852.852,0,1,0,0,1.7h1.7a.852.852,0,1,0,0-1.7Z" transform="translate(-6.659 -4.587)"/>
          <path id="Shape-20" data-name="Shape" d="M23.852,22a.852.852,0,0,0-.852.852v6.816a.852.852,0,0,0,1.7,0V22.852A.852.852,0,0,0,23.852,22Z" transform="translate(-3.403 -3.255)"/>
          <path id="Shape-21" data-name="Shape" d="M27.852,22a.852.852,0,0,0-.852.852v6.816a.852.852,0,0,0,1.7,0V22.852A.852.852,0,0,0,27.852,22Z" transform="translate(-3.995 -3.255)"/>
          <path id="Shape-22" data-name="Shape" d="M31.852,22a.852.852,0,0,0-.852.852v6.816a.852.852,0,0,0,1.7,0V22.852A.852.852,0,0,0,31.852,22Z" transform="translate(-4.587 -3.255)"/>
          <path id="Shape-23" data-name="Shape" d="M35.852,22a.852.852,0,0,0-.852.852v6.816a.852.852,0,0,0,1.7,0V22.852A.852.852,0,0,0,35.852,22Z" transform="translate(-5.179 -3.255)"/>
        </g>
      </g>
    </g>
  </g>
</svg>
